<svg width="100%" height="100%" viewBox="0 0 134 167" fill="none" xmlns="http://www.w3.org/2000/svg">
<path fill-rule="evenodd" clip-rule="evenodd" d="M1.05414 6.00388C0.663635 6.39438 0.663635 7.02756 1.05414 7.41806C1.44467 7.80862 2.07785 7.80862 2.46835 7.41806L7.41812 2.46835C7.80862 2.07779 7.80862 1.44461 7.41812 1.05411C7.02759 0.663605 6.39441 0.663605 6.00391 1.05411L1.05414 6.00388ZM2.02194 21.4225C2.02295 21.9084 2.37036 22.3127 2.82999 22.402V145C2.82999 156.14 11.8604 165.17 23 165.17H104.014C104.095 165.641 104.506 166 105 166H117L134 150V138C134 137.506 133.641 137.095 133.17 137.014V22C133.17 10.8604 124.14 1.82999 113 1.82999H23.9856C23.9049 1.35867 23.4943 0.999969 23 0.999969H11L2.08514 11.004L2 11.0042L2.02194 21.4225ZM132 150V138C132 137.506 132.359 137.095 132.83 137.014V22C132.83 11.0482 123.952 2.16995 113 2.16995H23.9856C23.9049 2.64127 23.4943 2.99997 23 2.99997H19.5H13H12.0401L4.00156 11.7389L4.02191 21.4183C4.02298 21.921 3.65295 22.3379 3.17001 22.4095V145C3.17001 155.952 12.0482 164.83 23 164.83H104.014C104.095 164.359 104.506 164 105 164H117L132 150ZM120.505 165.938C120.785 166.244 121.259 166.265 121.565 165.986L132.936 155.614C133.242 155.334 133.264 154.86 132.985 154.554C132.706 154.248 132.231 154.226 131.925 154.505L120.554 164.878C120.248 165.157 120.226 165.631 120.505 165.938ZM126.565 165.655C126.259 165.934 125.785 165.912 125.505 165.606C125.226 165.3 125.248 164.826 125.554 164.547L132.177 158.505C132.483 158.226 132.957 158.248 133.236 158.554C133.516 158.86 133.494 159.334 133.188 159.614L126.565 165.655ZM129.478 165.678C129.214 165.358 129.259 164.886 129.578 164.622L132.174 162.478C132.493 162.214 132.966 162.259 133.23 162.578C133.494 162.898 133.449 163.37 133.129 163.634L130.534 165.778C130.214 166.042 129.741 165.997 129.478 165.678Z" fill="#58A8F6"/>
</svg>
